<svg xmlns="http://www.w3.org/2000/svg" viewBox="0 0 586 626"><defs><style>.cls-1{fill:#fff;fill-rule:evenodd;}</style></defs><title>Asset 1@100x</title><g id="Layer_2" data-name="Layer 2"><g id="レイヤー_1" data-name="レイヤー 1"><path class="cls-1" d="M0,0H430V195H391V39H80c46.81,26.32,103.06,52.48,154,78V470H391V352h39V508H235c-2.33,37.34-.34,79-1,118h-1C156.53,585.47,76.56,548.44,0,508Z"/><path class="cls-1" d="M586,275c-28.87,28.5-58.72,57.72-88,87-9.46,9.46-17.61,20.73-29,27V314c-63-2.33-130.33-.33-195-1V235H468c2.33-23.33.33-51,1-76-.28-1.79.95-2.05,1-1C508.92,196.75,548.75,234.58,586,275Z"/></g></g></svg>